<svg width="531" height="159" viewBox="0 0 531 159" fill="none" xmlns="http://www.w3.org/2000/svg">
<path d="M110.132 95.0068V138.08L70.8359 159.001L31.54 138.08V95.0068L70.0605 73.5938L110.132 95.0068ZM102.893 26.3359V43.0732L97.2051 40.1191V28.5508L61.2705 6.8916V54.3955L84.0205 41.1035C84.5378 40.6933 86.0894 40.1192 88.1572 41.1035L109.614 53.6572V44.3037H120.989V60.5488L138.569 71.624C139.948 72.4444 142.55 74.8731 141.93 78.0234C141.326 79.2541 139.138 81.4699 135.208 80.4854L86.0889 50.7031L23.0088 88.3613V146.694L36.9688 147.187L52.7393 155.556H4.13672C3.1888 155.392 1.0341 154.521 0 152.355V150.387C0.172345 149.156 1.13746 146.694 3.61914 146.694H13.7021V85.1621C13.616 84.6699 13.7533 83.4878 14.9941 82.7002L25.0771 76.5469V20.4287L59.4609 0L102.893 26.3359ZM129.521 84.1768V146.694H139.861C142.757 147.482 143.826 149.976 143.998 151.125C143.171 154.669 140.034 155.556 138.569 155.556H88.1572L104.702 146.694H119.955V78.7627L129.521 84.1768ZM37.7451 135.126L67.9922 151.371V116.174L56.875 110.267V124.051L48.8613 120.604V106.329L37.7451 100.668V135.126ZM72.9043 117.159V150.387L85.5713 144.972V130.942L80.4014 131.681L89.4492 118.882L97.2051 127.25L92.5518 128.234V140.295L103.41 135.126V100.668L72.9043 117.159ZM57.877 106.207L71.0947 112.975L100.308 96.7295L87.8984 90.084L57.877 106.207ZM40.3301 96.7295L52.4805 103.375L82.9863 87.377L71.0947 80.2393L40.3301 96.7295ZM31.54 57.5947V66.9473L36.4521 64.4863V55.625L31.54 57.5947ZM40.0713 53.6562V62.5166L44.7246 60.0557V50.7031L40.0713 53.6562ZM31.54 43.0723V51.9336L36.4521 49.4717V40.6113L31.54 43.0723ZM40.0713 37.9043V47.2568L44.7246 45.5342V36.1807L40.0713 37.9043ZM48.8613 33.9658V43.0723L53.5146 40.6113V31.5049L48.8613 33.9658ZM31.0234 28.3047L31.54 37.165L36.4521 34.9502V25.8438L31.0234 28.3047ZM40.0713 23.1357V33.2275L44.7246 30.5195V21.167L40.0713 23.1357ZM48.8613 18.7051V28.3047L52.998 25.8438V16.7363L48.8613 18.7051Z" fill="#7B00FF"/>
<path d="M230.902 116.804C230.902 115.171 230.633 113.705 230.097 112.406C229.606 111.066 228.667 109.851 227.282 108.762C225.896 107.631 223.952 106.521 221.45 105.431C218.947 104.342 215.707 103.211 211.73 102.038C207.305 100.698 203.104 99.1899 199.127 97.5143C195.194 95.8388 191.709 93.8909 188.67 91.6708C185.675 89.4087 183.307 86.7906 181.564 83.8165C179.866 80.8423 179.017 77.3864 179.017 73.4488C179.017 69.6369 179.91 66.181 181.698 63.0812C183.486 59.9395 185.988 57.2586 189.206 55.0384C192.424 52.7764 196.222 51.038 200.602 49.8232C205.026 48.6084 209.875 48.001 215.148 48.001C222.343 48.001 228.622 49.2158 233.985 51.6454C239.348 54.075 243.504 57.4052 246.454 61.636C249.448 65.8668 250.945 70.7051 250.945 76.1507H230.969C230.969 73.4698 230.365 71.124 229.159 69.1133C227.997 67.0607 226.209 65.4479 223.796 64.275C221.427 63.1021 218.433 62.5157 214.813 62.5157C211.327 62.5157 208.423 63.0184 206.099 64.0237C203.775 64.9872 202.032 66.3067 200.87 67.9823C199.708 69.6159 199.127 71.4591 199.127 73.5117C199.127 75.0616 199.529 76.4649 200.334 77.7216C201.183 78.9782 202.434 80.1512 204.088 81.2403C205.741 82.3294 207.775 83.3557 210.188 84.3192C212.601 85.2826 215.394 86.2251 218.567 87.1467C223.885 88.6547 228.555 90.3512 232.577 92.2363C236.644 94.1213 240.041 96.2367 242.767 98.5825C245.493 100.928 247.549 103.588 248.934 106.562C250.319 109.537 251.012 112.909 251.012 116.679C251.012 120.658 250.185 124.219 248.532 127.361C246.878 130.502 244.487 133.162 241.359 135.341C238.231 137.519 234.499 139.173 230.164 140.304C225.829 141.435 220.98 142.001 215.618 142.001C210.791 142.001 206.032 141.415 201.339 140.242C196.647 139.027 192.379 137.205 188.536 134.775C184.737 132.345 181.698 129.246 179.419 125.476C177.14 121.706 176 117.244 176 112.092H196.178C196.178 114.94 196.647 117.349 197.585 119.318C198.524 121.287 199.842 122.878 201.54 124.093C203.283 125.308 205.339 126.188 207.708 126.732C210.121 127.277 212.757 127.549 215.618 127.549C219.103 127.549 221.964 127.088 224.198 126.167C226.477 125.245 228.153 123.968 229.226 122.334C230.343 120.7 230.902 118.857 230.902 116.804Z" fill="#3B3B3B"/>
<path d="M278.094 49.2577L298.473 90.9796L318.851 49.2577H340.772L308.662 107.442V140.744H288.283V107.442L256.107 49.2577H278.094Z" fill="#3B3B3B"/>
<path d="M399.427 116.804C399.427 115.171 399.159 113.705 398.623 112.406C398.131 111.066 397.193 109.851 395.807 108.762C394.422 107.631 392.478 106.521 389.975 105.431C387.473 104.342 384.233 103.211 380.255 102.038C375.831 100.698 371.63 99.1899 367.653 97.5143C363.72 95.8388 360.234 93.8909 357.195 91.6708C354.201 89.4087 351.833 86.7906 350.09 83.8165C348.391 80.8423 347.542 77.3864 347.542 73.4488C347.542 69.6369 348.436 66.181 350.224 63.0812C352.011 59.9395 354.514 57.2586 357.732 55.0384C360.949 52.7764 364.748 51.038 369.128 49.8232C373.552 48.6084 378.401 48.001 383.674 48.001C390.869 48.001 397.148 49.2158 402.511 51.6454C407.874 54.075 412.03 57.4052 414.979 61.636C417.974 65.8668 419.471 70.7051 419.471 76.1507H399.494C399.494 73.4698 398.891 71.124 397.684 69.1133C396.522 67.0607 394.735 65.4479 392.322 64.275C389.953 63.1021 386.959 62.5157 383.339 62.5157C379.853 62.5157 376.948 63.0184 374.624 64.0237C372.3 64.9872 370.558 66.3067 369.396 67.9823C368.234 69.6159 367.653 71.4591 367.653 73.5117C367.653 75.0616 368.055 76.4649 368.859 77.7216C369.708 78.9782 370.96 80.1512 372.613 81.2403C374.267 82.3294 376.3 83.3557 378.713 84.3192C381.127 85.2826 383.92 86.2251 387.093 87.1467C392.411 88.6547 397.081 90.3512 401.103 92.2363C405.17 94.1213 408.566 96.2367 411.292 98.5825C414.019 100.928 416.074 103.588 417.46 106.562C418.845 109.537 419.538 112.909 419.538 116.679C419.538 120.658 418.711 124.219 417.057 127.361C415.404 130.502 413.013 133.162 409.885 135.341C406.756 137.519 403.025 139.173 398.69 140.304C394.355 141.435 389.506 142.001 384.143 142.001C379.317 142.001 374.557 141.415 369.865 140.242C365.172 139.027 360.905 137.205 357.061 134.775C353.263 132.345 350.224 129.246 347.944 125.476C345.665 121.706 344.526 117.244 344.526 112.092H364.703C364.703 114.94 365.172 117.349 366.111 119.318C367.049 121.287 368.368 122.878 370.066 124.093C371.809 125.308 373.865 126.188 376.233 126.732C378.646 127.277 381.283 127.549 384.143 127.549C387.629 127.549 390.489 127.088 392.724 126.167C395.003 125.245 396.679 123.968 397.751 122.334C398.869 120.7 399.427 118.857 399.427 116.804Z" fill="#3B3B3B"/>
<path d="M470.627 106.853V116.043H438.785V106.853H470.627ZM442.514 83.5651V140.744H429.945V83.5651H442.514ZM479.593 83.5651V140.744H467.065V83.5651H479.593Z" fill="#3B3B3B"/>
<path d="M531 131.908V140.744H489.271V133.204L509.004 113.372C510.987 111.304 512.551 109.484 513.697 107.913C514.842 106.316 515.666 104.89 516.169 103.633C516.699 102.35 516.965 101.133 516.965 99.9806C516.965 98.2526 516.657 96.7734 516.043 95.5429C515.428 94.2862 514.521 93.3175 513.32 92.6368C512.146 91.9561 510.694 91.6158 508.962 91.6158C507.119 91.6158 505.527 92.0347 504.186 92.8725C502.873 93.7103 501.868 94.8753 501.169 96.3676C500.499 97.8599 500.164 99.5486 500.164 101.434H488.056C488.056 98.0301 488.922 94.9146 490.653 92.087C492.385 89.2333 494.829 86.9687 497.985 85.2931C501.142 83.5913 504.884 82.7404 509.214 82.7404C513.487 82.7404 517.09 83.395 520.023 84.704C522.984 85.9869 525.218 87.8457 526.727 90.2806C528.263 92.6892 529.031 95.5691 529.031 98.9203C529.031 100.805 528.71 102.651 528.067 104.458C527.425 106.238 526.503 108.018 525.302 109.798C524.129 111.553 522.704 113.333 521.029 115.139C519.353 116.946 517.495 118.818 515.456 120.755L504.856 131.908H531Z" fill="#3B3B3B"/>
</svg>
