<svg width="444" height="467" viewBox="0 0 444 467" fill="none" xmlns="http://www.w3.org/2000/svg">
<path d="M339.577 279.044V405.554L218.413 467.001L97.25 405.554V279.044L216.021 216.15L339.577 279.044ZM317.257 77.3516V126.509L299.721 117.834V83.8574L188.92 20.2412V159.763L259.066 120.726C260.661 119.521 265.444 117.834 271.821 120.726L337.982 157.595V130.124H373.057V177.836L427.261 210.367C431.512 212.777 439.537 219.91 437.624 229.163C435.764 232.778 429.015 239.283 416.898 236.392L265.443 148.92L70.9443 259.525V430.855L113.989 432.301L162.614 456.88H12.7539C9.83104 456.398 3.18849 453.844 0 447.482V441.699C0.531419 438.085 3.50772 430.855 11.1602 430.855H42.248V250.127C41.9824 248.681 42.4075 245.212 46.2334 242.898L77.3213 224.825V60.001L183.34 0L317.257 77.3516ZM399.361 247.235V430.855H431.246C440.174 433.169 443.469 440.493 444.001 443.867C441.45 454.277 431.778 456.88 427.261 456.88H271.821L322.837 430.855H369.867V231.331L399.361 247.235ZM116.381 396.878L209.645 444.59V341.214L175.368 323.864V364.347L150.657 354.227V312.297L116.381 295.67V396.878ZM224.79 344.105V441.698L263.85 425.795V384.589L247.907 386.757L275.807 349.166L299.721 373.745L285.372 376.637V412.06L318.852 396.878V295.67L224.79 344.105ZM178.458 311.94L219.211 331.815L309.286 284.104L271.023 264.585L178.458 311.94ZM124.353 284.104L161.817 303.622L255.878 256.633L219.211 235.669L124.353 284.104ZM97.25 169.16V196.631L112.396 189.402V163.377L97.25 169.16ZM123.556 157.594V183.618L137.904 176.39V148.919L123.556 157.594ZM97.25 126.509V152.533L112.396 145.305V119.279L97.25 126.509ZM123.556 111.327V138.798L137.904 133.737V106.267L123.556 111.327ZM150.658 99.7607V126.509L165.007 119.279V92.5312L150.658 99.7607ZM95.6562 83.1338L97.25 109.158L112.396 102.652V75.9043L95.6562 83.1338ZM123.556 67.9521V97.5918L137.904 89.6396V62.1689L123.556 67.9521ZM150.658 54.9404V83.1338L163.412 75.9043V49.1572L150.658 54.9404Z" fill="url(#paint0_linear_188_12)"/>
<defs>
<linearGradient id="paint0_linear_188_12" x1="222" y1="0" x2="222" y2="467.001" gradientUnits="userSpaceOnUse">
<stop offset="0.0307751" stop-color="#7B00FF"/>
<stop offset="1" stop-color="#1E0736"/>
</linearGradient>
</defs>
</svg>
