<svg width="164" height="178" viewBox="0 0 164 178" fill="none" xmlns="http://www.w3.org/2000/svg">
<path d="M124.717 106.359V154.579L80.2168 178L35.7168 154.579V106.359L79.3389 82.3877L124.717 106.359ZM116.52 29.4834V48.2197L110.079 44.9141V31.9629L69.3848 7.71582V60.8955L95.1475 46.0156C95.733 45.5564 97.49 44.9135 99.832 46.0156L124.131 60.0684V49.5977H137.013V67.7832L156.921 80.1826C158.482 81.1011 161.429 83.8199 160.727 87.3467C160.043 88.7243 157.565 91.2044 153.115 90.1025L97.4902 56.7617L26.0557 98.9199V164.223L41.8652 164.774L59.7236 174.143H4.68457C3.61113 173.959 1.17107 172.985 0 170.561V168.356C0.195174 166.979 1.28814 164.223 4.09863 164.223H15.5166V95.3379C15.419 94.7868 15.5752 93.4638 16.9805 92.582L28.3984 85.6934V22.8701L67.335 0L116.52 29.4834ZM146.674 94.2354V164.223H158.385C161.663 165.104 162.873 167.897 163.068 169.183C162.132 173.15 158.58 174.142 156.921 174.143H99.832L118.568 164.223H135.842V88.1738L146.674 94.2354ZM42.7432 151.272L76.9961 169.458V130.056L64.4082 123.442V138.873L55.332 135.016V119.034L42.7432 112.696V151.272ZM82.5586 131.158V168.356L96.9043 162.294V146.588L91.0488 147.415L101.296 133.087L110.079 142.455L104.809 143.558V157.059L117.104 151.272V112.696L82.5586 131.158ZM65.542 118.898L80.5098 126.474L113.592 108.288L99.5391 100.849L65.542 118.898ZM45.6709 108.288L59.4307 115.728L93.9766 97.8174L80.5098 89.8271L45.6709 108.288ZM35.7168 64.4766V74.9473L41.2793 72.1924V62.2725L35.7168 64.4766ZM45.3779 60.0684V69.9883L50.6484 67.2324V56.7617L45.3779 60.0684ZM35.7168 48.2197V58.1396L41.2793 55.3838V45.4648L35.7168 48.2197ZM45.3779 42.4336V52.9043L50.6484 50.9756V40.5049L45.3779 42.4336ZM55.332 38.0254V48.2197L60.6016 45.4648V35.2695L55.332 38.0254ZM35.1318 31.6875L35.7168 41.6074L41.2793 39.127V28.9326L35.1318 31.6875ZM45.3779 25.9014V37.1982L50.6484 34.168V23.6973L45.3779 25.9014ZM55.332 20.9414V31.6875L60.0166 28.9326V18.7373L55.332 20.9414Z" fill="#C500E1"/>
</svg>
